<?xml version="1.0" encoding="UTF-8"?>
<svg xmlns="http://www.w3.org/2000/svg" xmlns:xlink="http://www.w3.org/1999/xlink" width="375pt" height="374.999991pt" viewBox="0 0 375 374.999991" version="1.2">
<g id="surface1">
<path style=" stroke:none;fill-rule:nonzero;fill:rgb(0%,0%,0%);fill-opacity:1;" d="M 187.5 -0.0390625 L 187.507812 -0.0390625 C 190.574219 -0.0390625 193.636719 0.0351562 196.699219 0.183594 C 199.757812 0.335938 202.816406 0.558594 205.863281 0.859375 C 208.914062 1.160156 211.957031 1.535156 214.988281 1.984375 C 218.019531 2.4375 221.039062 2.960938 224.042969 3.558594 C 227.050781 4.15625 230.039062 4.828125 233.011719 5.570312 C 235.988281 6.316406 238.9375 7.132812 241.871094 8.023438 C 244.804688 8.914062 247.714844 9.875 250.601562 10.90625 C 253.488281 11.9375 256.34375 13.042969 259.175781 14.214844 C 262.007812 15.386719 264.808594 16.628906 267.582031 17.941406 C 270.351562 19.25 273.085938 20.628906 275.789062 22.074219 C 278.492188 23.515625 281.160156 25.027344 283.789062 26.605469 C 286.417969 28.179688 289.007812 29.820312 291.554688 31.519531 C 294.101562 33.222656 296.609375 34.988281 299.070312 36.8125 C 301.53125 38.640625 303.949219 40.523438 306.316406 42.46875 C 308.6875 44.414062 311.007812 46.414062 313.277344 48.472656 C 315.546875 50.53125 317.765625 52.644531 319.933594 54.8125 C 322.101562 56.980469 324.214844 59.199219 326.273438 61.46875 C 328.332031 63.738281 330.332031 66.058594 332.277344 68.429688 C 334.222656 70.796875 336.105469 73.214844 337.933594 75.675781 C 339.757812 78.136719 341.523438 80.644531 343.226562 83.191406 C 344.929688 85.738281 346.566406 88.328125 348.144531 90.957031 C 349.71875 93.585938 351.230469 96.253906 352.671875 98.957031 C 354.117188 101.660156 355.496094 104.394531 356.804688 107.167969 C 358.117188 109.9375 359.359375 112.738281 360.53125 115.570312 C 361.703125 118.402344 362.808594 121.261719 363.839844 124.144531 C 364.871094 127.03125 365.832031 129.941406 366.722656 132.875 C 367.613281 135.808594 368.429688 138.761719 369.175781 141.734375 C 369.917969 144.707031 370.589844 147.695312 371.1875 150.703125 C 371.785156 153.707031 372.308594 156.726562 372.761719 159.757812 C 373.210938 162.789062 373.585938 165.832031 373.886719 168.882812 C 374.1875 171.933594 374.410156 174.988281 374.5625 178.046875 C 374.710938 181.109375 374.789062 184.171875 374.789062 187.238281 L 374.789062 187.671875 C 374.789062 190.738281 374.710938 193.800781 374.5625 196.859375 C 374.410156 199.921875 374.1875 202.976562 373.886719 206.027344 C 373.585938 209.078125 373.210938 212.121094 372.761719 215.152344 C 372.308594 218.183594 371.785156 221.203125 371.1875 224.207031 C 370.589844 227.214844 369.917969 230.203125 369.175781 233.175781 C 368.429688 236.148438 367.613281 239.101562 366.722656 242.035156 C 365.832031 244.96875 364.871094 247.878906 363.839844 250.765625 C 362.808594 253.648438 361.703125 256.507812 360.53125 259.339844 C 359.359375 262.171875 358.117188 264.972656 356.804688 267.742188 C 355.496094 270.515625 354.117188 273.25 352.671875 275.953125 C 351.230469 278.65625 349.71875 281.324219 348.144531 283.953125 C 346.566406 286.582031 344.929688 289.171875 343.226562 291.71875 C 341.523438 294.265625 339.757812 296.773438 337.933594 299.234375 C 336.105469 301.695312 334.222656 304.109375 332.277344 306.480469 C 330.332031 308.851562 328.332031 311.167969 326.273438 313.441406 C 324.214844 315.710938 322.101562 317.929688 319.933594 320.097656 C 317.765625 322.265625 315.546875 324.378906 313.277344 326.4375 C 311.007812 328.496094 308.6875 330.496094 306.316406 332.441406 C 303.949219 334.386719 301.53125 336.269531 299.070312 338.097656 C 296.609375 339.921875 294.101562 341.6875 291.554688 343.386719 C 289.007812 345.089844 286.417969 346.730469 283.789062 348.304688 C 281.160156 349.882812 278.492188 351.390625 275.789062 352.835938 C 273.085938 354.28125 270.351562 355.660156 267.582031 356.96875 C 264.808594 358.28125 262.007812 359.523438 259.175781 360.695312 C 256.34375 361.867188 253.488281 362.972656 250.601562 364.003906 C 247.714844 365.035156 244.804688 365.996094 241.871094 366.886719 C 238.9375 367.777344 235.988281 368.59375 233.011719 369.339844 C 230.039062 370.082031 227.050781 370.753906 224.042969 371.351562 C 221.039062 371.949219 218.019531 372.472656 214.988281 372.925781 C 211.957031 373.375 208.914062 373.75 205.863281 374.050781 C 202.816406 374.347656 199.757812 374.574219 196.699219 374.726562 C 193.636719 374.875 190.574219 374.949219 187.507812 374.949219 L 187.5 374.949219 C 184.433594 374.949219 181.371094 374.875 178.3125 374.726562 C 175.25 374.574219 172.195312 374.347656 169.144531 374.050781 C 166.09375 373.75 163.050781 373.375 160.019531 372.925781 C 156.988281 372.472656 153.96875 371.949219 150.964844 371.351562 C 147.957031 370.753906 144.96875 370.082031 141.996094 369.339844 C 139.023438 368.59375 136.070312 367.777344 133.136719 366.886719 C 130.203125 365.996094 127.292969 365.035156 124.40625 364.003906 C 121.523438 362.972656 118.664062 361.867188 115.832031 360.695312 C 113 359.523438 110.199219 358.28125 107.429688 356.96875 C 104.65625 355.660156 101.921875 354.28125 99.21875 352.835938 C 96.515625 351.390625 93.847656 349.882812 91.21875 348.304688 C 88.589844 346.730469 86 345.089844 83.453125 343.386719 C 80.90625 341.6875 78.398438 339.921875 75.9375 338.097656 C 73.476562 336.269531 71.0625 334.386719 68.691406 332.441406 C 66.320312 330.496094 64.003906 328.496094 61.730469 326.4375 C 59.460938 324.378906 57.242188 322.265625 55.074219 320.097656 C 52.90625 317.929688 50.792969 315.710938 48.734375 313.441406 C 46.675781 311.167969 44.675781 308.851562 42.730469 306.480469 C 40.785156 304.109375 38.902344 301.695312 37.074219 299.234375 C 35.25 296.773438 33.484375 294.265625 31.78125 291.71875 C 30.082031 289.171875 28.441406 286.582031 26.867188 283.953125 C 25.289062 281.324219 23.78125 278.65625 22.335938 275.953125 C 20.890625 273.25 19.511719 270.515625 18.203125 267.742188 C 16.890625 264.972656 15.648438 262.171875 14.476562 259.339844 C 13.304688 256.507812 12.199219 253.648438 11.167969 250.765625 C 10.136719 247.878906 9.175781 244.96875 8.285156 242.035156 C 7.394531 239.101562 6.578125 236.148438 5.832031 233.175781 C 5.089844 230.203125 4.417969 227.214844 3.820312 224.207031 C 3.222656 221.203125 2.699219 218.183594 2.246094 215.152344 C 1.796875 212.121094 1.421875 209.078125 1.121094 206.027344 C 0.824219 202.976562 0.597656 199.921875 0.445312 196.859375 C 0.296875 193.800781 0.222656 190.738281 0.222656 187.671875 L 0.222656 187.238281 C 0.222656 184.171875 0.296875 181.109375 0.445312 178.050781 C 0.597656 174.988281 0.824219 171.933594 1.121094 168.882812 C 1.421875 165.832031 1.796875 162.789062 2.246094 159.757812 C 2.699219 156.726562 3.222656 153.707031 3.820312 150.703125 C 4.417969 147.695312 5.089844 144.707031 5.832031 141.734375 C 6.578125 138.761719 7.394531 135.808594 8.285156 132.875 C 9.175781 129.941406 10.136719 127.03125 11.167969 124.144531 C 12.199219 121.261719 13.304688 118.402344 14.476562 115.570312 C 15.648438 112.738281 16.890625 109.9375 18.203125 107.167969 C 19.511719 104.394531 20.890625 101.660156 22.335938 98.957031 C 23.78125 96.253906 25.289062 93.585938 26.867188 90.957031 C 28.441406 88.328125 30.082031 85.738281 31.78125 83.191406 C 33.484375 80.644531 35.25 78.136719 37.074219 75.675781 C 38.902344 73.214844 40.785156 70.796875 42.730469 68.429688 C 44.675781 66.058594 46.675781 63.738281 48.734375 61.46875 C 50.792969 59.199219 52.90625 56.980469 55.074219 54.8125 C 57.242188 52.644531 59.460938 50.53125 61.730469 48.472656 C 64.003906 46.414062 66.320312 44.414062 68.691406 42.46875 C 71.0625 40.523438 73.476562 38.640625 75.9375 36.8125 C 78.398438 34.988281 80.90625 33.222656 83.453125 31.519531 C 86 29.820312 88.589844 28.179688 91.21875 26.605469 C 93.847656 25.027344 96.515625 23.515625 99.21875 22.074219 C 101.921875 20.628906 104.65625 19.25 107.429688 17.941406 C 110.199219 16.628906 113 15.386719 115.832031 14.214844 C 118.664062 13.042969 121.523438 11.9375 124.40625 10.90625 C 127.292969 9.875 130.203125 8.914062 133.136719 8.023438 C 136.070312 7.132812 139.023438 6.316406 141.996094 5.570312 C 144.96875 4.828125 147.957031 4.15625 150.964844 3.558594 C 153.96875 2.960938 156.988281 2.4375 160.019531 1.984375 C 163.050781 1.535156 166.09375 1.160156 169.144531 0.859375 C 172.195312 0.558594 175.25 0.335938 178.3125 0.183594 C 181.371094 0.0351562 184.433594 -0.0390625 187.5 -0.0390625 Z M 187.5 -0.0390625 "/>
<path style=" stroke:none;fill-rule:nonzero;fill:rgb(100%,87.059021%,34.899902%);fill-opacity:1;" d="M 80.734375 95.691406 L 295.097656 95.691406 C 295.863281 95.691406 296.621094 95.769531 297.371094 95.917969 C 298.121094 96.066406 298.851562 96.289062 299.558594 96.582031 C 300.265625 96.871094 300.9375 97.230469 301.570312 97.65625 C 302.207031 98.082031 302.796875 98.566406 303.335938 99.105469 C 303.878906 99.648438 304.363281 100.234375 304.785156 100.871094 C 305.210938 101.507812 305.570312 102.179688 305.863281 102.886719 C 306.15625 103.59375 306.378906 104.320312 306.527344 105.070312 C 306.675781 105.824219 306.75 106.578125 306.75 107.34375 L 306.75 267.574219 C 306.75 268.339844 306.675781 269.097656 306.527344 269.847656 C 306.378906 270.597656 306.15625 271.324219 305.863281 272.03125 C 305.570312 272.738281 305.210938 273.410156 304.785156 274.046875 C 304.363281 274.683594 303.878906 275.269531 303.335938 275.8125 C 302.796875 276.351562 302.207031 276.835938 301.570312 277.261719 C 300.9375 277.6875 300.265625 278.046875 299.558594 278.339844 C 298.851562 278.628906 298.121094 278.851562 297.371094 279 C 296.621094 279.148438 295.863281 279.226562 295.097656 279.226562 L 80.734375 279.226562 C 79.972656 279.226562 79.214844 279.148438 78.460938 279 C 77.710938 278.851562 76.984375 278.628906 76.277344 278.339844 C 75.570312 278.046875 74.898438 277.6875 74.261719 277.261719 C 73.625 276.835938 73.039062 276.351562 72.496094 275.8125 C 71.957031 275.269531 71.472656 274.683594 71.046875 274.046875 C 70.621094 273.410156 70.265625 272.738281 69.972656 272.03125 C 69.679688 271.324219 69.457031 270.597656 69.308594 269.847656 C 69.160156 269.097656 69.085938 268.339844 69.085938 267.574219 L 69.085938 107.34375 C 69.085938 106.578125 69.160156 105.824219 69.308594 105.070312 C 69.457031 104.320312 69.679688 103.59375 69.972656 102.886719 C 70.265625 102.179688 70.621094 101.507812 71.046875 100.871094 C 71.472656 100.234375 71.957031 99.648438 72.496094 99.105469 C 73.039062 98.566406 73.625 98.082031 74.261719 97.65625 C 74.898438 97.230469 75.570312 96.875 76.277344 96.582031 C 76.984375 96.289062 77.710938 96.066406 78.460938 95.917969 C 79.214844 95.769531 79.972656 95.691406 80.734375 95.691406 Z M 80.734375 95.691406 "/>
<path style=" stroke:none;fill-rule:nonzero;fill:rgb(36.079407%,88.238525%,90.19928%);fill-opacity:1;" d="M 156.316406 222.464844 C 155.652344 222.464844 155.027344 222.308594 154.441406 221.988281 L 121.164062 203.988281 C 116.410156 201.417969 115.699219 197.980469 115.699219 196.15625 C 115.699219 194.332031 116.410156 190.902344 121.164062 188.328125 L 154.441406 170.324219 C 154.90625 170.078125 155.398438 169.925781 155.917969 169.875 C 156.441406 169.820312 156.953125 169.871094 157.457031 170.019531 C 157.957031 170.171875 158.414062 170.410156 158.820312 170.742188 C 159.226562 171.074219 159.554688 171.472656 159.804688 171.933594 C 160.054688 172.394531 160.203125 172.886719 160.257812 173.40625 C 160.3125 173.929688 160.265625 174.441406 160.113281 174.945312 C 159.964844 175.449219 159.726562 175.902344 159.394531 176.308594 C 159.0625 176.71875 158.667969 177.046875 158.207031 177.296875 L 124.929688 195.296875 C 124.488281 195.519531 124.089844 195.804688 123.742188 196.15625 C 124.089844 196.515625 124.484375 196.804688 124.929688 197.023438 L 158.207031 215.027344 C 158.59375 215.234375 158.933594 215.503906 159.230469 215.828125 C 159.527344 216.152344 159.765625 216.515625 159.941406 216.917969 C 160.117188 217.320312 160.222656 217.742188 160.257812 218.179688 C 160.296875 218.621094 160.257812 219.050781 160.148438 219.480469 C 160.042969 219.90625 159.867188 220.300781 159.625 220.671875 C 159.386719 221.039062 159.09375 221.359375 158.746094 221.628906 C 158.398438 221.898438 158.015625 222.105469 157.601562 222.246094 C 157.183594 222.390625 156.757812 222.464844 156.316406 222.464844 Z M 156.316406 222.464844 "/>
<path style=" stroke:none;fill-rule:nonzero;fill:rgb(36.079407%,88.238525%,90.19928%);fill-opacity:1;" d="M 219.992188 222.464844 C 219.550781 222.464844 219.121094 222.398438 218.703125 222.257812 C 218.285156 222.117188 217.898438 221.910156 217.550781 221.640625 C 217.199219 221.371094 216.902344 221.050781 216.660156 220.679688 C 216.417969 220.3125 216.242188 219.914062 216.132812 219.484375 C 216.027344 219.058594 215.988281 218.621094 216.027344 218.183594 C 216.0625 217.742188 216.171875 217.320312 216.347656 216.914062 C 216.527344 216.511719 216.765625 216.148438 217.066406 215.824219 C 217.367188 215.5 217.710938 215.234375 218.101562 215.027344 L 251.371094 197.023438 C 251.820312 196.804688 252.21875 196.515625 252.566406 196.15625 C 252.214844 195.804688 251.816406 195.519531 251.371094 195.296875 L 218.101562 177.296875 C 217.875 177.171875 217.660156 177.027344 217.457031 176.863281 C 217.257812 176.695312 217.074219 176.511719 216.910156 176.3125 C 216.746094 176.109375 216.605469 175.894531 216.484375 175.664062 C 216.359375 175.433594 216.261719 175.195312 216.1875 174.945312 C 216.113281 174.695312 216.066406 174.441406 216.039062 174.183594 C 216.015625 173.921875 216.015625 173.664062 216.042969 173.40625 C 216.070312 173.148438 216.121094 172.894531 216.199219 172.644531 C 216.273438 172.394531 216.375 172.15625 216.5 171.929688 C 216.621094 171.699219 216.765625 171.484375 216.933594 171.285156 C 217.097656 171.085938 217.28125 170.902344 217.484375 170.738281 C 217.6875 170.574219 217.902344 170.429688 218.132812 170.308594 C 218.363281 170.1875 218.601562 170.089844 218.851562 170.015625 C 219.097656 169.941406 219.351562 169.890625 219.613281 169.867188 C 219.871094 169.84375 220.128906 169.84375 220.390625 169.871094 C 220.648438 169.898438 220.902344 169.949219 221.148438 170.023438 C 221.398438 170.101562 221.636719 170.203125 221.867188 170.324219 L 255.136719 188.328125 C 259.898438 190.902344 260.609375 194.339844 260.609375 196.15625 C 260.609375 197.972656 259.898438 201.417969 255.136719 203.988281 L 221.867188 221.988281 C 221.28125 222.308594 220.65625 222.464844 219.992188 222.464844 Z M 252.722656 196.394531 Z M 252.722656 196.394531 "/>
<path style=" stroke:none;fill-rule:nonzero;fill:rgb(36.079407%,88.238525%,90.19928%);fill-opacity:1;" d="M 170.980469 243.007812 C 170.460938 243.007812 169.960938 242.90625 169.480469 242.707031 C 169.242188 242.609375 169.011719 242.488281 168.796875 242.34375 C 168.578125 242.203125 168.378906 242.039062 168.195312 241.855469 C 168.007812 241.675781 167.84375 241.476562 167.699219 241.261719 C 167.554688 241.046875 167.429688 240.816406 167.328125 240.578125 C 167.230469 240.339844 167.152344 240.09375 167.101562 239.839844 C 167.046875 239.582031 167.023438 239.328125 167.019531 239.066406 C 167.019531 238.808594 167.042969 238.550781 167.09375 238.292969 C 167.140625 238.039062 167.214844 237.792969 167.3125 237.550781 L 200.4375 156.546875 C 200.535156 156.304688 200.65625 156.078125 200.796875 155.859375 C 200.941406 155.644531 201.105469 155.441406 201.289062 155.257812 C 201.46875 155.074219 201.667969 154.90625 201.886719 154.761719 C 202.101562 154.617188 202.328125 154.492188 202.566406 154.394531 C 202.808594 154.292969 203.054688 154.214844 203.308594 154.164062 C 203.5625 154.113281 203.820312 154.085938 204.082031 154.085938 C 204.339844 154.082031 204.597656 154.105469 204.851562 154.15625 C 205.109375 154.207031 205.355469 154.28125 205.597656 154.378906 C 205.835938 154.476562 206.066406 154.597656 206.28125 154.742188 C 206.5 154.882812 206.699219 155.046875 206.882812 155.230469 C 207.070312 155.414062 207.234375 155.613281 207.378906 155.828125 C 207.523438 156.042969 207.648438 156.273438 207.746094 156.511719 C 207.847656 156.75 207.925781 157 207.976562 157.253906 C 208.027344 157.507812 208.054688 157.765625 208.054688 158.023438 C 208.054688 158.285156 208.03125 158.542969 207.980469 158.796875 C 207.933594 159.050781 207.859375 159.300781 207.757812 159.539062 L 174.644531 240.503906 C 174.5 240.871094 174.300781 241.210938 174.054688 241.519531 C 173.808594 241.828125 173.519531 242.09375 173.195312 242.316406 C 172.867188 242.539062 172.515625 242.710938 172.140625 242.828125 C 171.761719 242.945312 171.375 243.007812 170.980469 243.007812 Z M 170.980469 243.007812 "/>
<path style=" stroke:none;fill-rule:nonzero;fill:rgb(0%,0%,0%);fill-opacity:1;" d="M 306.75 127.851562 L 69.085938 127.851562 C 68.824219 127.851562 68.566406 127.824219 68.3125 127.773438 C 68.054688 127.722656 67.808594 127.648438 67.570312 127.546875 C 67.328125 127.449219 67.101562 127.328125 66.882812 127.183594 C 66.667969 127.039062 66.46875 126.875 66.285156 126.691406 C 66.101562 126.507812 65.9375 126.304688 65.792969 126.089844 C 65.648438 125.875 65.523438 125.644531 65.425781 125.40625 C 65.324219 125.164062 65.25 124.917969 65.199219 124.664062 C 65.148438 124.40625 65.125 124.148438 65.125 123.890625 C 65.125 123.628906 65.148438 123.371094 65.199219 123.117188 C 65.25 122.863281 65.324219 122.613281 65.425781 122.375 C 65.523438 122.132812 65.648438 121.90625 65.792969 121.691406 C 65.9375 121.472656 66.101562 121.273438 66.285156 121.089844 C 66.46875 120.90625 66.667969 120.742188 66.882812 120.597656 C 67.101562 120.453125 67.328125 120.332031 67.570312 120.230469 C 67.808594 120.132812 68.054688 120.054688 68.3125 120.003906 C 68.566406 119.953125 68.824219 119.929688 69.085938 119.929688 L 306.75 119.929688 C 307.011719 119.929688 307.269531 119.953125 307.523438 120.003906 C 307.777344 120.054688 308.027344 120.132812 308.265625 120.230469 C 308.507812 120.332031 308.734375 120.453125 308.949219 120.597656 C 309.167969 120.742188 309.367188 120.90625 309.550781 121.089844 C 309.734375 121.273438 309.898438 121.472656 310.042969 121.691406 C 310.1875 121.90625 310.308594 122.132812 310.410156 122.375 C 310.507812 122.613281 310.582031 122.863281 310.632812 123.117188 C 310.683594 123.371094 310.710938 123.628906 310.710938 123.890625 C 310.710938 124.148438 310.683594 124.40625 310.632812 124.664062 C 310.582031 124.917969 310.507812 125.164062 310.410156 125.40625 C 310.308594 125.644531 310.1875 125.875 310.042969 126.089844 C 309.898438 126.304688 309.734375 126.507812 309.550781 126.691406 C 309.367188 126.875 309.167969 127.039062 308.949219 127.183594 C 308.734375 127.328125 308.507812 127.449219 308.265625 127.546875 C 308.027344 127.648438 307.777344 127.722656 307.523438 127.773438 C 307.269531 127.824219 307.011719 127.851562 306.75 127.851562 Z M 306.75 127.851562 "/>
<path style=" stroke:none;fill-rule:nonzero;fill:rgb(0%,29.019165%,67.83905%);fill-opacity:1;" d="M 88.410156 108.605469 C 88.410156 108.933594 88.378906 109.257812 88.316406 109.578125 C 88.25 109.898438 88.15625 110.210938 88.03125 110.515625 C 87.90625 110.816406 87.75 111.105469 87.570312 111.378906 C 87.386719 111.652344 87.179688 111.902344 86.949219 112.132812 C 86.71875 112.367188 86.464844 112.574219 86.191406 112.753906 C 85.921875 112.9375 85.632812 113.089844 85.328125 113.214844 C 85.027344 113.34375 84.714844 113.4375 84.394531 113.5 C 84.070312 113.566406 83.746094 113.597656 83.417969 113.597656 C 83.09375 113.597656 82.765625 113.566406 82.445312 113.5 C 82.125 113.4375 81.8125 113.34375 81.507812 113.214844 C 81.207031 113.089844 80.917969 112.9375 80.648438 112.753906 C 80.375 112.574219 80.121094 112.367188 79.890625 112.132812 C 79.660156 111.902344 79.453125 111.652344 79.269531 111.378906 C 79.085938 111.105469 78.933594 110.816406 78.808594 110.515625 C 78.683594 110.210938 78.589844 109.898438 78.523438 109.578125 C 78.460938 109.257812 78.429688 108.933594 78.429688 108.605469 C 78.429688 108.277344 78.460938 107.953125 78.523438 107.632812 C 78.589844 107.308594 78.683594 106.996094 78.808594 106.695312 C 78.933594 106.390625 79.085938 106.105469 79.269531 105.832031 C 79.453125 105.558594 79.660156 105.308594 79.890625 105.074219 C 80.121094 104.84375 80.375 104.636719 80.648438 104.453125 C 80.917969 104.273438 81.207031 104.121094 81.507812 103.992188 C 81.8125 103.867188 82.125 103.773438 82.445312 103.710938 C 82.765625 103.644531 83.09375 103.613281 83.417969 103.613281 C 83.746094 103.613281 84.070312 103.644531 84.394531 103.710938 C 84.714844 103.773438 85.027344 103.867188 85.328125 103.992188 C 85.632812 104.121094 85.921875 104.273438 86.191406 104.453125 C 86.464844 104.636719 86.71875 104.84375 86.949219 105.074219 C 87.179688 105.308594 87.386719 105.558594 87.570312 105.832031 C 87.75 106.105469 87.90625 106.390625 88.03125 106.695312 C 88.15625 106.996094 88.25 107.308594 88.316406 107.632812 C 88.378906 107.953125 88.410156 108.277344 88.410156 108.605469 Z M 88.410156 108.605469 "/>
<path style=" stroke:none;fill-rule:nonzero;fill:rgb(36.079407%,88.238525%,90.19928%);fill-opacity:1;" d="M 108.390625 108.605469 C 108.390625 108.933594 108.359375 109.257812 108.296875 109.578125 C 108.234375 109.898438 108.136719 110.210938 108.011719 110.515625 C 107.886719 110.816406 107.734375 111.105469 107.550781 111.378906 C 107.371094 111.652344 107.164062 111.902344 106.929688 112.132812 C 106.699219 112.367188 106.445312 112.574219 106.175781 112.753906 C 105.902344 112.9375 105.613281 113.089844 105.3125 113.214844 C 105.007812 113.34375 104.695312 113.4375 104.375 113.5 C 104.054688 113.566406 103.730469 113.597656 103.402344 113.597656 C 103.074219 113.597656 102.75 113.566406 102.425781 113.5 C 102.105469 113.4375 101.792969 113.34375 101.492188 113.214844 C 101.1875 113.089844 100.902344 112.9375 100.628906 112.753906 C 100.355469 112.574219 100.105469 112.367188 99.871094 112.132812 C 99.640625 111.902344 99.433594 111.652344 99.25 111.378906 C 99.070312 111.105469 98.914062 110.816406 98.789062 110.515625 C 98.664062 110.210938 98.570312 109.898438 98.503906 109.578125 C 98.441406 109.257812 98.410156 108.933594 98.410156 108.605469 C 98.410156 108.277344 98.441406 107.953125 98.503906 107.632812 C 98.570312 107.308594 98.664062 106.996094 98.789062 106.695312 C 98.914062 106.390625 99.070312 106.105469 99.25 105.832031 C 99.433594 105.558594 99.640625 105.308594 99.871094 105.074219 C 100.105469 104.84375 100.355469 104.636719 100.628906 104.453125 C 100.902344 104.273438 101.1875 104.121094 101.492188 103.992188 C 101.792969 103.867188 102.105469 103.773438 102.425781 103.710938 C 102.75 103.644531 103.074219 103.613281 103.402344 103.613281 C 103.730469 103.613281 104.054688 103.644531 104.375 103.710938 C 104.695312 103.773438 105.007812 103.867188 105.3125 103.992188 C 105.613281 104.121094 105.902344 104.273438 106.175781 104.453125 C 106.445312 104.636719 106.699219 104.84375 106.929688 105.074219 C 107.164062 105.308594 107.371094 105.558594 107.550781 105.832031 C 107.734375 106.105469 107.886719 106.390625 108.011719 106.695312 C 108.136719 106.996094 108.234375 107.308594 108.296875 107.632812 C 108.359375 107.953125 108.390625 108.277344 108.390625 108.605469 Z M 108.390625 108.605469 "/>
<path style=" stroke:none;fill-rule:nonzero;fill:rgb(0%,0%,0%);fill-opacity:1;" d="M 128.367188 108.605469 C 128.367188 108.933594 128.332031 109.257812 128.269531 109.578125 C 128.207031 109.898438 128.109375 110.210938 127.984375 110.515625 C 127.859375 110.816406 127.707031 111.105469 127.523438 111.378906 C 127.34375 111.652344 127.136719 111.902344 126.902344 112.132812 C 126.671875 112.367188 126.421875 112.574219 126.148438 112.753906 C 125.875 112.9375 125.585938 113.089844 125.285156 113.214844 C 124.980469 113.34375 124.667969 113.4375 124.347656 113.5 C 124.027344 113.566406 123.703125 113.597656 123.375 113.597656 C 123.046875 113.597656 122.722656 113.566406 122.402344 113.5 C 122.078125 113.4375 121.765625 113.34375 121.464844 113.214844 C 121.160156 113.089844 120.875 112.9375 120.601562 112.753906 C 120.328125 112.574219 120.078125 112.367188 119.84375 112.132812 C 119.613281 111.902344 119.40625 111.652344 119.222656 111.378906 C 119.042969 111.105469 118.886719 110.816406 118.761719 110.515625 C 118.636719 110.210938 118.542969 109.898438 118.480469 109.578125 C 118.414062 109.257812 118.382812 108.933594 118.382812 108.605469 C 118.382812 108.277344 118.414062 107.953125 118.480469 107.632812 C 118.542969 107.308594 118.636719 106.996094 118.761719 106.695312 C 118.886719 106.390625 119.042969 106.105469 119.222656 105.832031 C 119.40625 105.558594 119.613281 105.308594 119.84375 105.074219 C 120.078125 104.84375 120.328125 104.636719 120.601562 104.453125 C 120.875 104.273438 121.160156 104.121094 121.464844 103.992188 C 121.765625 103.867188 122.078125 103.773438 122.402344 103.710938 C 122.722656 103.644531 123.046875 103.613281 123.375 103.613281 C 123.703125 103.613281 124.027344 103.644531 124.347656 103.710938 C 124.667969 103.773438 124.980469 103.867188 125.285156 103.992188 C 125.585938 104.121094 125.875 104.273438 126.148438 104.453125 C 126.421875 104.636719 126.671875 104.84375 126.902344 105.074219 C 127.136719 105.308594 127.34375 105.558594 127.523438 105.832031 C 127.707031 106.105469 127.859375 106.390625 127.984375 106.695312 C 128.109375 106.996094 128.207031 107.308594 128.269531 107.632812 C 128.332031 107.953125 128.367188 108.277344 128.367188 108.605469 Z M 128.367188 108.605469 "/>
<path style=" stroke:none;fill-rule:nonzero;fill:rgb(0%,29.019165%,67.83905%);fill-opacity:1;" d="M 293.054688 112.566406 L 149.296875 112.566406 C 149.027344 112.578125 148.761719 112.5625 148.5 112.519531 C 148.234375 112.480469 147.976562 112.410156 147.726562 112.316406 C 147.476562 112.222656 147.238281 112.105469 147.011719 111.964844 C 146.785156 111.820312 146.574219 111.65625 146.378906 111.472656 C 146.1875 111.289062 146.015625 111.085938 145.863281 110.867188 C 145.707031 110.644531 145.582031 110.414062 145.476562 110.167969 C 145.371094 109.921875 145.289062 109.667969 145.238281 109.402344 C 145.183594 109.140625 145.15625 108.875 145.15625 108.609375 C 145.15625 108.339844 145.183594 108.078125 145.238281 107.816406 C 145.289062 107.550781 145.371094 107.296875 145.476562 107.050781 C 145.582031 106.804688 145.707031 106.574219 145.863281 106.351562 C 146.015625 106.132812 146.1875 105.929688 146.378906 105.746094 C 146.574219 105.5625 146.785156 105.398438 147.011719 105.253906 C 147.238281 105.113281 147.476562 104.996094 147.726562 104.902344 C 147.976562 104.808594 148.234375 104.738281 148.5 104.699219 C 148.761719 104.65625 149.027344 104.640625 149.296875 104.652344 L 293.054688 104.652344 C 293.320312 104.640625 293.585938 104.65625 293.851562 104.699219 C 294.113281 104.738281 294.371094 104.808594 294.625 104.902344 C 294.875 104.996094 295.113281 105.113281 295.339844 105.253906 C 295.566406 105.398438 295.777344 105.5625 295.96875 105.746094 C 296.164062 105.929688 296.335938 106.132812 296.488281 106.351562 C 296.640625 106.574219 296.769531 106.804688 296.875 107.050781 C 296.980469 107.296875 297.058594 107.550781 297.113281 107.816406 C 297.167969 108.078125 297.195312 108.339844 297.195312 108.609375 C 297.195312 108.875 297.167969 109.140625 297.113281 109.402344 C 297.058594 109.667969 296.980469 109.921875 296.875 110.167969 C 296.769531 110.414062 296.640625 110.644531 296.488281 110.867188 C 296.335938 111.085938 296.164062 111.289062 295.96875 111.472656 C 295.777344 111.65625 295.566406 111.820312 295.339844 111.964844 C 295.113281 112.105469 294.875 112.222656 294.625 112.316406 C 294.371094 112.410156 294.113281 112.480469 293.851562 112.519531 C 293.585938 112.5625 293.320312 112.578125 293.054688 112.566406 Z M 293.054688 112.566406 "/>
</g>
</svg>
