<?xml version="1.0" encoding="UTF-8"?>
<svg xmlns="http://www.w3.org/2000/svg" xmlns:xlink="http://www.w3.org/1999/xlink" width="375pt" height="374.999991pt" viewBox="0 0 375 374.999991" version="1.2">
<g id="surface1">
<path style=" stroke:none;fill-rule:nonzero;fill:rgb(0%,0%,0%);fill-opacity:1;" d="M 355.261719 187.5 C 355.261719 190.246094 355.195312 192.988281 355.0625 195.730469 C 354.925781 198.472656 354.722656 201.210938 354.457031 203.945312 C 354.1875 206.675781 353.851562 209.398438 353.449219 212.117188 C 353.042969 214.832031 352.574219 217.535156 352.039062 220.230469 C 351.503906 222.921875 350.902344 225.601562 350.234375 228.261719 C 349.566406 230.925781 348.835938 233.570312 348.039062 236.199219 C 347.242188 238.828125 346.382812 241.433594 345.457031 244.019531 C 344.53125 246.601562 343.542969 249.164062 342.492188 251.699219 C 341.441406 254.238281 340.328125 256.746094 339.15625 259.226562 C 337.980469 261.710938 336.75 264.160156 335.453125 266.582031 C 334.160156 269.003906 332.808594 271.390625 331.394531 273.746094 C 329.984375 276.101562 328.515625 278.421875 326.988281 280.703125 C 325.464844 282.988281 323.882812 285.230469 322.25 287.4375 C 320.613281 289.640625 318.925781 291.804688 317.183594 293.929688 C 315.441406 296.050781 313.648438 298.128906 311.804688 300.164062 C 309.960938 302.195312 308.066406 304.183594 306.125 306.125 C 304.183594 308.066406 302.195312 309.960938 300.164062 311.804688 C 298.128906 313.648438 296.050781 315.441406 293.929688 317.183594 C 291.804688 318.925781 289.640625 320.613281 287.4375 322.25 C 285.230469 323.882812 282.988281 325.464844 280.703125 326.988281 C 278.421875 328.515625 276.101562 329.984375 273.746094 331.394531 C 271.390625 332.808594 269.003906 334.160156 266.582031 335.453125 C 264.160156 336.75 261.710938 337.980469 259.226562 339.15625 C 256.746094 340.328125 254.238281 341.441406 251.699219 342.492188 C 249.164062 343.542969 246.601562 344.53125 244.019531 345.457031 C 241.433594 346.382812 238.828125 347.242188 236.199219 348.039062 C 233.570312 348.835938 230.925781 349.566406 228.261719 350.234375 C 225.601562 350.902344 222.921875 351.503906 220.230469 352.039062 C 217.535156 352.574219 214.832031 353.042969 212.117188 353.449219 C 209.398438 353.851562 206.675781 354.1875 203.945312 354.457031 C 201.210938 354.722656 198.472656 354.925781 195.730469 355.0625 C 192.988281 355.195312 190.246094 355.261719 187.5 355.261719 C 184.753906 355.261719 182.011719 355.195312 179.269531 355.0625 C 176.527344 354.925781 173.789062 354.722656 171.054688 354.457031 C 168.324219 354.1875 165.601562 353.851562 162.882812 353.449219 C 160.167969 353.042969 157.464844 352.574219 154.769531 352.039062 C 152.078125 351.503906 149.398438 350.902344 146.738281 350.234375 C 144.074219 349.566406 141.429688 348.835938 138.800781 348.039062 C 136.171875 347.242188 133.566406 346.382812 130.980469 345.457031 C 128.398438 344.53125 125.835938 343.542969 123.300781 342.492188 C 120.761719 341.441406 118.253906 340.328125 115.773438 339.15625 C 113.289062 337.980469 110.839844 336.75 108.417969 335.453125 C 105.996094 334.160156 103.609375 332.808594 101.253906 331.394531 C 98.898438 329.984375 96.578125 328.515625 94.296875 326.988281 C 92.011719 325.464844 89.769531 323.882812 87.5625 322.25 C 85.359375 320.613281 83.195312 318.925781 81.070312 317.183594 C 78.949219 315.441406 76.871094 313.648438 74.835938 311.804688 C 72.804688 309.960938 70.816406 308.066406 68.875 306.125 C 66.933594 304.183594 65.039062 302.195312 63.195312 300.164062 C 61.351562 298.128906 59.558594 296.050781 57.816406 293.929688 C 56.074219 291.804688 54.386719 289.640625 52.75 287.4375 C 51.117188 285.230469 49.535156 282.988281 48.011719 280.703125 C 46.484375 278.421875 45.015625 276.101562 43.605469 273.746094 C 42.191406 271.390625 40.839844 269.003906 39.546875 266.582031 C 38.25 264.160156 37.019531 261.710938 35.84375 259.226562 C 34.671875 256.746094 33.558594 254.238281 32.507812 251.699219 C 31.457031 249.164062 30.46875 246.601562 29.542969 244.019531 C 28.617188 241.433594 27.757812 238.828125 26.960938 236.199219 C 26.164062 233.570312 25.429688 230.925781 24.765625 228.261719 C 24.097656 225.601562 23.496094 222.921875 22.960938 220.230469 C 22.425781 217.535156 21.957031 214.832031 21.550781 212.117188 C 21.148438 209.398438 20.8125 206.675781 20.542969 203.945312 C 20.277344 201.210938 20.074219 198.472656 19.9375 195.730469 C 19.804688 192.988281 19.738281 190.246094 19.738281 187.5 C 19.738281 184.753906 19.804688 182.011719 19.9375 179.269531 C 20.074219 176.527344 20.277344 173.789062 20.542969 171.054688 C 20.8125 168.324219 21.148438 165.601562 21.550781 162.882812 C 21.957031 160.167969 22.425781 157.464844 22.960938 154.769531 C 23.496094 152.078125 24.097656 149.398438 24.765625 146.738281 C 25.429688 144.074219 26.164062 141.429688 26.960938 138.800781 C 27.757812 136.171875 28.617188 133.566406 29.542969 130.980469 C 30.46875 128.398438 31.457031 125.835938 32.507812 123.300781 C 33.558594 120.761719 34.671875 118.253906 35.84375 115.773438 C 37.019531 113.289062 38.25 110.839844 39.546875 108.417969 C 40.839844 105.996094 42.191406 103.609375 43.605469 101.253906 C 45.015625 98.898438 46.484375 96.578125 48.011719 94.296875 C 49.535156 92.011719 51.117188 89.769531 52.75 87.5625 C 54.386719 85.359375 56.074219 83.195312 57.816406 81.070312 C 59.558594 78.949219 61.351562 76.871094 63.195312 74.835938 C 65.039062 72.804688 66.933594 70.816406 68.875 68.875 C 70.816406 66.933594 72.804688 65.039062 74.835938 63.195312 C 76.871094 61.351562 78.949219 59.558594 81.070312 57.816406 C 83.195312 56.074219 85.359375 54.386719 87.5625 52.75 C 89.769531 51.117188 92.011719 49.535156 94.296875 48.011719 C 96.578125 46.484375 98.898438 45.015625 101.253906 43.605469 C 103.609375 42.191406 105.996094 40.839844 108.417969 39.546875 C 110.839844 38.25 113.289062 37.019531 115.773438 35.84375 C 118.253906 34.671875 120.761719 33.558594 123.300781 32.507812 C 125.835938 31.457031 128.398438 30.46875 130.980469 29.542969 C 133.566406 28.617188 136.171875 27.757812 138.800781 26.960938 C 141.429688 26.164062 144.074219 25.429688 146.738281 24.765625 C 149.398438 24.097656 152.078125 23.496094 154.769531 22.960938 C 157.464844 22.425781 160.167969 21.957031 162.882812 21.550781 C 165.601562 21.148438 168.324219 20.8125 171.054688 20.542969 C 173.789062 20.277344 176.527344 20.074219 179.269531 19.9375 C 182.011719 19.804688 184.753906 19.738281 187.5 19.738281 C 190.246094 19.738281 192.988281 19.804688 195.730469 19.9375 C 198.472656 20.074219 201.210938 20.277344 203.945312 20.542969 C 206.675781 20.8125 209.398438 21.148438 212.117188 21.550781 C 214.832031 21.957031 217.535156 22.425781 220.230469 22.960938 C 222.921875 23.496094 225.601562 24.097656 228.261719 24.765625 C 230.925781 25.429688 233.570312 26.164062 236.199219 26.960938 C 238.828125 27.757812 241.433594 28.617188 244.019531 29.542969 C 246.601562 30.46875 249.164062 31.457031 251.699219 32.507812 C 254.238281 33.558594 256.746094 34.671875 259.226562 35.84375 C 261.710938 37.019531 264.160156 38.25 266.582031 39.546875 C 269.003906 40.839844 271.390625 42.191406 273.746094 43.605469 C 276.101562 45.015625 278.421875 46.484375 280.703125 48.011719 C 282.988281 49.535156 285.230469 51.117188 287.4375 52.75 C 289.640625 54.386719 291.804688 56.074219 293.929688 57.816406 C 296.050781 59.558594 298.128906 61.351562 300.164062 63.195312 C 302.195312 65.039062 304.183594 66.933594 306.125 68.875 C 308.066406 70.816406 309.960938 72.804688 311.804688 74.835938 C 313.648438 76.871094 315.441406 78.949219 317.183594 81.070312 C 318.925781 83.195312 320.613281 85.359375 322.25 87.5625 C 323.882812 89.769531 325.464844 92.011719 326.988281 94.296875 C 328.515625 96.578125 329.984375 98.898438 331.394531 101.253906 C 332.808594 103.609375 334.160156 105.996094 335.453125 108.417969 C 336.75 110.839844 337.980469 113.289062 339.15625 115.773438 C 340.328125 118.253906 341.441406 120.761719 342.492188 123.300781 C 343.542969 125.835938 344.53125 128.398438 345.457031 130.980469 C 346.382812 133.566406 347.242188 136.171875 348.039062 138.800781 C 348.835938 141.429688 349.566406 144.074219 350.234375 146.738281 C 350.902344 149.398438 351.503906 152.078125 352.039062 154.769531 C 352.574219 157.464844 353.042969 160.167969 353.449219 162.882812 C 353.851562 165.601562 354.1875 168.324219 354.457031 171.054688 C 354.722656 173.789062 354.925781 176.527344 355.0625 179.269531 C 355.195312 182.011719 355.261719 184.753906 355.261719 187.5 Z M 355.261719 187.5 "/>
<path style=" stroke:none;fill-rule:nonzero;fill:rgb(100%,77.249146%,27.059937%);fill-opacity:1;" d="M 157.894531 355.261719 L 157.894531 300.988281 C 157.894531 298.261719 160.105469 296.050781 162.828125 296.050781 C 165.550781 296.050781 167.761719 298.261719 167.761719 300.988281 L 167.761719 355.261719 L 187.5 355.261719 L 187.5 291.117188 C 187.5 288.394531 189.710938 286.183594 192.433594 286.183594 C 195.15625 286.183594 197.367188 288.394531 197.367188 291.117188 L 197.367188 355.261719 L 217.105469 355.261719 L 217.105469 300.988281 C 217.105469 298.261719 219.316406 296.050781 222.039062 296.050781 C 224.761719 296.050781 226.972656 298.261719 226.972656 300.988281 L 226.972656 355.261719 L 244.324219 355.261719 C 245.863281 352.550781 246.710938 349.074219 246.710938 344.613281 L 246.710938 305.714844 C 246.710938 284.386719 227.863281 254.09375 204.761719 254.09375 L 180.097656 254.09375 C 157.007812 254.09375 138.15625 284.398438 138.15625 305.714844 L 138.15625 344.613281 C 138.15625 349.074219 139.007812 352.550781 140.535156 355.261719 Z M 157.894531 355.261719 "/>
<path style="fill:none;stroke-width:0.25;stroke-linecap:round;stroke-linejoin:round;stroke:rgb(27.059937%,35.289001%,39.219666%);stroke-opacity:1;stroke-miterlimit:10;" d="M 34.617833 26.196875 C 34.617833 26.196875 36.532083 25.869125 37.662187 25.888917 C 38.804958 25.9 40.100125 26.251896 40.100125 26.251896 " transform="matrix(9.868421,0,0,9.868421,-49.342096,-49.342101)"/>
<path style="fill:none;stroke-width:0.25;stroke-linecap:round;stroke-linejoin:round;stroke:rgb(27.059937%,35.289001%,39.219666%);stroke-opacity:1;stroke-miterlimit:10;" d="M 34.136104 26.813979 C 34.136104 26.813979 36.321896 26.610917 37.222812 26.639021 C 38.474833 26.671083 39.815125 27.055833 39.815125 27.055833 " transform="matrix(9.868421,0,0,9.868421,-49.342096,-49.342101)"/>
<path style="fill:none;stroke-width:0.25;stroke-linecap:round;stroke-linejoin:round;stroke:rgb(27.059937%,35.289001%,39.219666%);stroke-opacity:1;stroke-miterlimit:10;" d="M 14.564124 26.088813 C 14.564124 26.088813 11.855833 25.844188 11.009937 25.844188 C 10.162062 25.844188 8.558145 26.088813 7.785874 26.310083 " transform="matrix(9.868421,0,0,9.868421,-49.342096,-49.342101)"/>
<path style="fill:none;stroke-width:0.25;stroke-linecap:round;stroke-linejoin:round;stroke:rgb(27.059937%,35.289001%,39.219666%);stroke-opacity:1;stroke-miterlimit:10;" d="M 15.178854 26.933917 C 15.178854 26.933917 12.339937 26.671083 11.047937 26.825854 C 9.502999 27.009125 8.153999 27.817813 8.153999 27.817813 " transform="matrix(9.868421,0,0,9.868421,-49.342096,-49.342101)"/>
<path style=" stroke:none;fill-rule:nonzero;fill:rgb(100%,77.249146%,27.059937%);fill-opacity:1;" d="M 90.53125 182.171875 C 90.53125 138.59375 136.113281 98.683594 192.433594 98.683594 C 248.65625 98.683594 294.335938 138.574219 294.335938 182.171875 C 294.335938 225.78125 261.640625 256.578125 192.433594 256.578125 C 123.238281 256.578125 90.53125 225.78125 90.53125 182.171875 Z M 90.53125 182.171875 "/>
<path style=" stroke:none;fill-rule:nonzero;fill:rgb(100%,77.249146%,27.059937%);fill-opacity:1;" d="M 232.757812 111.621094 C 232.757812 111.621094 249.304688 88.804688 279.828125 88.804688 C 291.988281 100.953125 283.628906 135.78125 279.652344 146.230469 Z M 232.757812 111.621094 "/>
<path style=" stroke:none;fill-rule:nonzero;fill:rgb(100%,77.249146%,27.059937%);fill-opacity:1;" d="M 152.003906 111.632812 C 152.003906 111.632812 135.453125 88.816406 105.050781 88.816406 C 92.902344 100.984375 101.140625 135.789062 105.109375 146.238281 Z M 152.003906 111.632812 "/>
<path style=" stroke:none;fill-rule:nonzero;fill:rgb(100%,77.249146%,27.059937%);fill-opacity:1;" d="M 149.074219 304.570312 C 149.074219 304.570312 125.890625 304.570312 121.539062 304.570312 C 109.5 304.570312 98.84375 299.300781 93.679688 289.71875 C 87.886719 279.070312 82.429688 267.019531 68.171875 257.0625 C 65.65625 255.296875 67.105469 252.738281 72.050781 253.3125 C 76.875 253.816406 86.023438 254.882812 93.03125 264.050781 C 100.015625 273.226562 107.644531 283.757812 120.761719 283.757812 C 133.746094 283.757812 147.867188 284.101562 154.984375 274.699219 Z M 149.074219 304.570312 "/>
<path style=" stroke:none;fill-rule:nonzero;fill:rgb(1.179504%,59.609985%,61.959839%);fill-opacity:1;" d="M 187.5 0 C 83.921875 0 0 83.921875 0 187.5 C 0 291.078125 83.921875 375 187.5 375 C 291.078125 375 375 291.078125 375 187.5 C 375 83.921875 291.078125 0 187.5 0 Z M 187.5 345.71875 C 100.28125 345.71875 29.28125 274.71875 29.28125 187.5 C 29.28125 100.28125 100.28125 29.28125 187.5 29.28125 C 274.71875 29.28125 345.71875 100.28125 345.71875 187.5 C 345.71875 274.71875 274.71875 345.71875 187.5 345.71875 Z M 187.5 345.71875 "/>
</g>
</svg>
