<?xml version="1.0" encoding="UTF-8"?>
<svg xmlns="http://www.w3.org/2000/svg" xmlns:xlink="http://www.w3.org/1999/xlink" width="375pt" height="374.999991pt" viewBox="0 0 375 374.999991" version="1.2">
<defs>
<clipPath id="clip1">
  <path d="M 64 298 L 299 298 L 299 374.964844 L 64 374.964844 Z M 64 298 "/>
</clipPath>
<clipPath id="clip2">
  <path d="M 59.542969 155 L 84 155 L 84 210 L 59.542969 210 Z M 59.542969 155 "/>
</clipPath>
<clipPath id="clip3">
  <path d="M 143 17.976562 L 215 17.976562 L 215 49 L 143 49 Z M 143 17.976562 "/>
</clipPath>
<clipPath id="clip4">
  <path d="M 281 155 L 304.792969 155 L 304.792969 210 L 281 210 Z M 281 155 "/>
</clipPath>
<clipPath id="clip5">
  <path d="M 112.421875 124 L 149 124 L 149 153 L 112.421875 153 Z M 112.421875 124 "/>
</clipPath>
<clipPath id="clip6">
  <path d="M 216 124 L 251.171875 124 L 251.171875 153 L 216 153 Z M 216 124 "/>
</clipPath>
<clipPath id="clip7">
  <path d="M 162 203 L 211 203 L 211 244.082031 L 162 244.082031 Z M 162 203 "/>
</clipPath>
<clipPath id="clip8">
  <path d="M 105 147 L 257.949219 147 L 257.949219 197 L 105 197 Z M 105 147 "/>
</clipPath>
<clipPath id="clip9">
  <path d="M 104.199219 146 L 257.949219 146 L 257.949219 198 L 104.199219 198 Z M 104.199219 146 "/>
</clipPath>
<clipPath id="clip10">
  <path d="M 251 147 L 257.949219 147 L 257.949219 184 L 251 184 Z M 251 147 "/>
</clipPath>
<clipPath id="clip11">
  <path d="M 250 146 L 257.949219 146 L 257.949219 185 L 250 185 Z M 250 146 "/>
</clipPath>
<clipPath id="clip12">
  <path d="M 257 153 L 257.949219 153 L 257.949219 173 L 257 173 Z M 257 153 "/>
</clipPath>
<clipPath id="clip13">
  <path d="M 104.199219 149 L 106 149 L 106 174 L 104.199219 174 Z M 104.199219 149 "/>
</clipPath>
<clipPath id="clip14">
  <path d="M 104.199219 148 L 107 148 L 107 175 L 104.199219 175 Z M 104.199219 148 "/>
</clipPath>
</defs>
<g id="surface1">
<g clip-path="url(#clip1)" clip-rule="nonzero">
<path style=" stroke:none;fill-rule:nonzero;fill:rgb(24.708557%,61.569214%,77.648926%);fill-opacity:1;" d="M 64.949219 374.984375 L 298.457031 374.984375 L 298.457031 337.789062 C 298.457031 326.707031 266.75 307.164062 230.898438 299.859375 C 214.753906 296.566406 199.894531 300.582031 183.011719 300.582031 C 165.5 300.582031 149.394531 296.082031 132.386719 299.121094 C 96.585938 305.546875 64.949219 323.988281 64.949219 337.789062 L 64.949219 374.984375 "/>
</g>
<path style=" stroke:none;fill-rule:nonzero;fill:rgb(92.939758%,59.609985%,41.178894%);fill-opacity:1;" d="M 151.125 325.214844 L 212.285156 325.214844 L 212.285156 248.667969 L 151.125 248.667969 L 151.125 325.214844 "/>
<path style=" stroke:none;fill-rule:nonzero;fill:rgb(97.24884%,66.668701%,46.669006%);fill-opacity:1;" d="M 263.035156 214.949219 C 260.90625 241.707031 215.820312 280.246094 182.5625 280.246094 C 149.304688 280.246094 102.085938 242.785156 102.085938 214.949219 C 102.085938 187.113281 101.003906 140.007812 102.085938 104.6875 C 103.167969 69.347656 136.425781 38.308594 182.5625 38.308594 C 228.714844 38.308594 262.65625 75.769531 263.035156 104.6875 C 263.433594 133.601562 265.183594 188.175781 263.035156 214.949219 "/>
<path style=" stroke:none;fill-rule:nonzero;fill:rgb(15.689087%,8.239746%,9.799194%);fill-opacity:1;" d="M 270.847656 169.984375 C 270.59375 148.230469 275.046875 126.367188 274.851562 111.109375 C 274.417969 79.351562 233.132812 38.308594 182.542969 38.308594 C 131.96875 38.308594 92.003906 72.316406 90.832031 111.109375 C 90.273438 129.066406 94.058594 149.867188 94.167969 169.984375 L 109.605469 169.984375 C 109.605469 169.984375 107.460938 93.566406 146.09375 93.566406 C 248.03125 82.988281 254.46875 169.984375 254.46875 169.984375 L 270.847656 169.984375 "/>
<path style=" stroke:none;fill-rule:nonzero;fill:rgb(56.858826%,56.079102%,56.079102%);fill-opacity:1;" d="M 183.082031 21.71875 C 206.441406 28.144531 200.8125 38.578125 183.082031 39.335938 C 87.746094 48.386719 83.238281 130.542969 83.238281 130.542969 L 66.554688 130.542969 C 66.554688 130.542969 74.90625 25.730469 183.082031 21.71875 "/>
<path style=" stroke:none;fill-rule:nonzero;fill:rgb(75.289917%,14.118958%,23.139954%);fill-opacity:1;" d="M 83.238281 130.542969 L 83.238281 155.410156 L 67.710938 181.410156 L 66.554688 130.542969 L 83.238281 130.542969 "/>
<path style=" stroke:none;fill-rule:nonzero;fill:rgb(30.979919%,32.159424%,32.548523%);fill-opacity:1;" d="M 81.398438 205.414062 C 81.21875 212.144531 86.554688 217.722656 93.300781 217.882812 C 100.046875 218.042969 105.65625 212.71875 105.820312 205.988281 L 106.953125 158.539062 C 107.117188 151.8125 101.777344 146.214844 95.035156 146.054688 C 88.289062 145.890625 82.695312 151.21875 82.535156 157.945312 L 81.398438 205.414062 "/>
<g clip-path="url(#clip2)" clip-rule="nonzero">
<path style=" stroke:none;fill-rule:nonzero;fill:rgb(75.289917%,14.118958%,23.139954%);fill-opacity:1;" d="M 59.988281 199.65625 C 59.863281 204.710938 81.9375 209.335938 81.9375 209.335938 L 83.238281 155.410156 C 83.238281 155.410156 60.964844 158.992188 60.835938 164.027344 L 59.988281 199.65625 "/>
</g>
<path style=" stroke:none;fill-rule:nonzero;fill:rgb(56.858826%,56.079102%,56.079102%);fill-opacity:1;" d="M 181.929688 21.71875 C 132.476562 19.882812 142.449219 35.59375 181.929688 39.335938 C 277.265625 48.386719 281.777344 130.542969 281.777344 130.542969 L 298.457031 130.542969 C 298.457031 130.542969 290.109375 25.730469 181.929688 21.71875 "/>
<g clip-path="url(#clip3)" clip-rule="nonzero">
<path style=" stroke:none;fill-rule:nonzero;fill:rgb(65.489197%,64.709473%,64.709473%);fill-opacity:1;" d="M 181.929688 17.957031 C 169.015625 17.957031 150.621094 23.699219 145.640625 27.730469 C 140.664062 31.742188 145.261719 46.53125 149.050781 48.132812 C 152.820312 49.71875 163.011719 43.597656 181.929688 43.597656 C 200.453125 43.597656 204.996094 47.628906 209.542969 47 C 214.070312 46.371094 217.136719 26.777344 212.933594 24.976562 C 208.730469 23.160156 192.824219 17.957031 181.929688 17.957031 "/>
</g>
<path style=" stroke:none;fill-rule:nonzero;fill:rgb(75.289917%,14.118958%,23.139954%);fill-opacity:1;" d="M 281.777344 130.542969 L 281.777344 155.410156 L 297.304688 181.410156 L 298.457031 130.542969 L 281.777344 130.542969 "/>
<path style=" stroke:none;fill-rule:nonzero;fill:rgb(30.979919%,32.159424%,32.548523%);fill-opacity:1;" d="M 283.613281 205.414062 C 283.796875 212.144531 278.457031 217.722656 271.710938 217.882812 C 264.964844 218.042969 259.355469 212.71875 259.195312 205.988281 L 258.058594 158.539062 C 257.894531 151.8125 263.234375 146.214844 269.980469 146.054688 C 276.726562 145.890625 282.316406 151.21875 282.480469 157.945312 L 283.613281 205.414062 "/>
<g clip-path="url(#clip4)" clip-rule="nonzero">
<path style=" stroke:none;fill-rule:nonzero;fill:rgb(75.289917%,14.118958%,23.139954%);fill-opacity:1;" d="M 305.023438 199.65625 C 305.148438 204.710938 283.074219 209.335938 283.074219 209.335938 L 281.777344 155.410156 C 281.777344 155.410156 304.050781 158.992188 304.15625 164.027344 L 305.023438 199.65625 "/>
</g>
<path style=" stroke:none;fill-rule:nonzero;fill:rgb(17.649841%,41.178894%,62.748718%);fill-opacity:1;" d="M 212.285156 291.492188 C 212.285156 308.335938 198.59375 321.992188 181.695312 321.992188 C 164.8125 321.992188 151.125 308.335938 151.125 291.492188 C 151.125 291.492188 132.007812 296.640625 132.386719 299.121094 C 136.066406 322.980469 156.75 341.261719 181.695312 341.261719 C 206.386719 341.261719 226.894531 323.359375 230.898438 299.859375 C 231.347656 297.144531 212.285156 291.492188 212.285156 291.492188 "/>
<path style=" stroke:none;fill-rule:nonzero;fill:rgb(0%,0%,0%);fill-opacity:1;" d="M 127.421875 180.96875 L 125.710938 181.03125 L 127.421875 180.976562 L 127.421875 180.96875 L 125.710938 181.03125 L 127.421875 180.976562 C 127.421875 180.972656 127.417969 180.824219 127.417969 180.550781 C 127.417969 179.753906 127.460938 177.898438 127.78125 175.578125 C 128.023438 173.839844 128.417969 171.835938 129.046875 169.832031 C 129.519531 168.324219 130.121094 166.816406 130.875 165.40625 C 132.007812 163.289062 133.464844 161.402344 135.335938 159.953125 C 136.273438 159.226562 137.316406 158.597656 138.515625 158.09375 C 139.714844 157.589844 141.066406 157.203125 142.625 156.980469 C 143.496094 156.855469 144.316406 156.800781 145.09375 156.800781 C 146.816406 156.800781 148.339844 157.074219 149.742188 157.542969 C 150.964844 157.953125 152.097656 158.519531 153.15625 159.214844 C 155.007812 160.425781 156.636719 162.046875 158.027344 163.835938 C 160.109375 166.519531 161.621094 169.566406 162.574219 171.917969 C 163.050781 173.089844 163.390625 174.085938 163.609375 174.773438 C 163.71875 175.121094 163.792969 175.382812 163.84375 175.558594 C 163.867188 175.644531 163.882812 175.707031 163.894531 175.742188 L 163.902344 175.777344 L 163.902344 175.78125 L 165.242188 175.441406 L 163.902344 175.777344 L 163.902344 175.78125 L 165.242188 175.441406 L 163.902344 175.777344 L 166.480469 175.128906 L 163.902344 175.777344 L 166.480469 175.128906 L 163.902344 175.777344 L 167.339844 174.914062 L 163.902344 175.773438 L 163.902344 175.777344 L 167.339844 174.914062 L 163.902344 175.773438 C 164.414062 177.832031 166.5 179.085938 168.558594 178.574219 C 170.613281 178.058594 171.867188 175.96875 171.355469 173.910156 C 171.324219 173.796875 170.945312 172.292969 170.097656 170.058594 C 169.460938 168.382812 168.5625 166.300781 167.335938 164.078125 C 165.492188 160.757812 162.925781 157.109375 159.28125 154.179688 C 157.460938 152.714844 155.363281 151.445312 152.988281 150.539062 C 150.613281 149.636719 147.957031 149.109375 145.09375 149.113281 C 143.941406 149.113281 142.757812 149.199219 141.546875 149.371094 C 138.960938 149.738281 136.617188 150.457031 134.539062 151.457031 C 132.71875 152.335938 131.101562 153.421875 129.691406 154.648438 C 127.21875 156.792969 125.382812 159.34375 124.015625 161.945312 C 121.964844 165.851562 120.929688 169.894531 120.367188 173.257812 C 119.808594 176.625 119.738281 179.324219 119.738281 180.550781 C 119.738281 180.964844 119.746094 181.214844 119.75 181.257812 C 119.828125 183.378906 121.609375 185.035156 123.730469 184.953125 C 125.851562 184.875 127.503906 183.089844 127.421875 180.96875 "/>
<path style=" stroke:none;fill-rule:nonzero;fill:rgb(0%,0%,0%);fill-opacity:1;" d="M 248.597656 181.257812 C 248.597656 181.214844 248.605469 180.964844 248.605469 180.546875 C 248.605469 179.476562 248.550781 177.292969 248.167969 174.523438 C 247.882812 172.449219 247.414062 170.042969 246.625 167.527344 C 246.035156 165.640625 245.261719 163.691406 244.246094 161.78125 C 242.714844 158.917969 240.613281 156.125 237.71875 153.878906 C 236.273438 152.753906 234.636719 151.78125 232.816406 151.007812 C 230.992188 150.242188 228.984375 149.679688 226.804688 149.371094 C 225.589844 149.199219 224.40625 149.113281 223.253906 149.113281 C 220.710938 149.113281 218.328125 149.523438 216.160156 150.253906 C 214.265625 150.890625 212.535156 151.765625 210.976562 152.785156 C 208.246094 154.578125 206.039062 156.816406 204.25 159.125 C 201.566406 162.589844 199.796875 166.222656 198.65625 169.019531 C 197.519531 171.8125 197.023438 173.78125 196.992188 173.910156 C 196.476562 175.96875 197.726562 178.058594 199.789062 178.574219 C 201.84375 179.085938 203.929688 177.832031 204.445312 175.773438 L 202.15625 175.203125 L 204.441406 175.78125 L 204.445312 175.773438 L 202.15625 175.203125 L 204.441406 175.78125 L 204.445312 175.773438 C 204.476562 175.644531 204.832031 174.296875 205.582031 172.386719 C 206.144531 170.953125 206.925781 169.203125 207.941406 167.417969 C 209.46875 164.734375 211.523438 161.996094 214.046875 160.035156 C 215.308594 159.046875 216.683594 158.246094 218.191406 157.6875 C 219.703125 157.128906 221.359375 156.800781 223.253906 156.800781 C 224.03125 156.800781 224.855469 156.855469 225.722656 156.980469 C 227.566406 157.242188 229.125 157.734375 230.480469 158.386719 C 231.664062 158.953125 232.699219 159.652344 233.621094 160.449219 C 235.234375 161.851562 236.519531 163.589844 237.53125 165.523438 C 239.058594 168.410156 239.9375 171.703125 240.398438 174.511719 C 240.867188 177.320312 240.925781 179.632812 240.921875 180.546875 C 240.921875 180.707031 240.921875 180.820312 240.921875 180.890625 L 240.917969 180.964844 L 240.917969 180.976562 L 242.636719 181.03125 L 240.917969 180.96875 L 240.917969 180.976562 L 242.636719 181.03125 L 240.917969 180.96875 C 240.839844 183.089844 242.492188 184.875 244.613281 184.953125 C 246.734375 185.035156 248.515625 183.378906 248.597656 181.257812 "/>
<g clip-path="url(#clip5)" clip-rule="nonzero">
<path style=" stroke:none;fill-rule:nonzero;fill:rgb(0%,0%,0%);fill-opacity:1;" d="M 143.425781 124.703125 C 138.976562 125.210938 118.460938 132.390625 112.441406 152.027344 C 119.910156 136.453125 146.101562 134.25 148.007812 134.296875 C 149.910156 134.339844 147.875 124.195312 143.425781 124.703125 "/>
</g>
<g clip-path="url(#clip6)" clip-rule="nonzero">
<path style=" stroke:none;fill-rule:nonzero;fill:rgb(0%,0%,0%);fill-opacity:1;" d="M 221.644531 124.113281 C 226.070312 124.800781 246.285156 132.78125 251.53125 152.632812 C 244.679688 136.78125 218.59375 133.546875 216.691406 133.519531 C 214.785156 133.488281 217.214844 123.433594 221.644531 124.113281 "/>
</g>
<g clip-path="url(#clip7)" clip-rule="nonzero">
<path style=" stroke:none;fill-rule:nonzero;fill:rgb(0%,0%,0%);fill-opacity:1;" d="M 210.675781 203.285156 C 210.675781 218.492188 199.910156 244.316406 186.628906 244.316406 C 173.351562 244.316406 162.585938 218.492188 162.585938 203.285156 L 210.675781 203.285156 "/>
</g>
<path style=" stroke:none;fill-rule:nonzero;fill:rgb(85.099792%,23.139954%,35.289001%);fill-opacity:1;" d="M 169.332031 221.984375 C 172.933594 231.980469 179.320312 241.199219 186.628906 241.199219 C 193.9375 241.199219 200.324219 231.980469 203.929688 221.984375 C 203.929688 221.984375 198.566406 216.097656 186.628906 216.097656 C 174.695312 216.097656 169.332031 221.984375 169.332031 221.984375 "/>
<g clip-path="url(#clip8)" clip-rule="nonzero">
<path style=" stroke:none;fill-rule:nonzero;fill:rgb(63.139343%,69.799805%,100%);fill-opacity:1;" d="M 258.039062 147.011719 L 258.039062 179.394531 C 258.039062 179.394531 229.175781 199.882812 191.347656 195.585938 C 191.347656 195.585938 187.03125 178.074219 181.699219 178.074219 C 176.371094 178.074219 172.050781 195.585938 172.050781 195.585938 C 151.742188 197.894531 134.019531 193.054688 121.957031 188.082031 C 118.207031 186.535156 115.003906 184.972656 112.441406 183.609375 C 107.894531 181.191406 105.359375 179.394531 105.359375 179.394531 L 105.359375 147.011719 L 258.039062 147.011719 "/>
</g>
<g clip-path="url(#clip9)" clip-rule="nonzero">
<path style="fill:none;stroke-width:28;stroke-linecap:round;stroke-linejoin:round;stroke:rgb(9.408569%,9.408569%,12.939453%);stroke-opacity:1;stroke-miterlimit:10;" d="M 3233.245237 2494.598564 L 3233.245237 2009.079411 C 3233.245237 2009.079411 2802.424539 1701.896304 2237.792296 1766.319835 C 2237.792296 1766.319835 2173.364515 2028.875005 2093.777257 2028.875005 C 2014.248304 2028.875005 1949.762218 1766.319835 1949.762218 1766.319835 C 1646.630967 1731.706829 1382.098079 1804.271151 1202.050128 1878.826746 C 1146.076671 1902.019217 1098.26601 1925.445955 1060.017482 1945.885784 C 992.149666 1982.138662 954.309277 2009.079411 954.309277 2009.079411 L 954.309277 2494.598564 Z M 3233.245237 2494.598564 " transform="matrix(0.066996,0,0,-0.0666973,41.424431,313.394687)"/>
</g>
<path style=" stroke:none;fill-rule:nonzero;fill:rgb(63.139343%,69.799805%,100%);fill-opacity:1;" d="M 163.113281 150.300781 L 163.113281 154.960938 L 181.953125 154.960938 L 186.628906 150.300781 L 163.113281 150.300781 "/>
<path style="fill:none;stroke-width:28;stroke-linecap:round;stroke-linejoin:round;stroke:rgb(9.408569%,9.408569%,12.939453%);stroke-opacity:1;stroke-miterlimit:10;" d="M 1816.358813 2445.285279 L 1816.358813 2375.415032 L 2097.567126 2375.415032 L 2167.35903 2445.285279 Z M 1816.358813 2445.285279 " transform="matrix(0.066996,0,0,-0.0666973,41.424431,313.394687)"/>
<path style=" stroke:none;fill-rule:nonzero;fill:rgb(63.139343%,69.799805%,100%);fill-opacity:1;" d="M 250.074219 147.011719 L 243.4375 147.011719 L 243.4375 187.234375 C 245.941406 186.144531 248.164062 185.066406 250.074219 184.074219 L 250.074219 147.011719 "/>
<path style="fill:none;stroke-width:28;stroke-linecap:round;stroke-linejoin:round;stroke:rgb(9.408569%,9.408569%,12.939453%);stroke-opacity:1;stroke-miterlimit:10;" d="M 3114.359948 2494.598564 L 3015.298591 2494.598564 L 3015.298591 1891.535751 C 3052.672534 1907.875901 3085.848468 1924.040351 3114.359948 1938.91633 Z M 3114.359948 2494.598564 " transform="matrix(0.066996,0,0,-0.0666973,41.424431,313.394687)"/>
<g clip-path="url(#clip10)" clip-rule="nonzero">
<path style=" stroke:none;fill-rule:nonzero;fill:rgb(63.139343%,69.799805%,100%);fill-opacity:1;" d="M 251.898438 147.011719 L 251.898438 183.101562 C 255.851562 180.945312 258.039062 179.394531 258.039062 179.394531 L 258.039062 147.011719 L 251.898438 147.011719 "/>
</g>
<g clip-path="url(#clip11)" clip-rule="nonzero">
<path style="fill:none;stroke-width:28;stroke-linecap:round;stroke-linejoin:round;stroke:rgb(9.408569%,9.408569%,12.939453%);stroke-opacity:1;stroke-miterlimit:10;" d="M 3141.588702 2494.598564 L 3141.588702 1953.499474 C 3200.594054 1985.828373 3233.245237 2009.079411 3233.245237 2009.079411 L 3233.245237 2494.598564 Z M 3141.588702 2494.598564 " transform="matrix(0.066996,0,0,-0.0666973,41.424431,313.394687)"/>
</g>
<g clip-path="url(#clip12)" clip-rule="nonzero">
<path style="fill:none;stroke-width:28;stroke-linecap:round;stroke-linejoin:round;stroke:rgb(9.408569%,9.408569%,12.939453%);stroke-opacity:1;stroke-miterlimit:10;" d="M 3376.910442 2126.037402 L 3233.245237 2126.037402 L 3233.245237 2390.525278 L 3376.910442 2390.525278 Z M 3376.910442 2126.037402 " transform="matrix(0.066996,0,0,-0.0666973,41.424431,313.394687)"/>
</g>
<g clip-path="url(#clip13)" clip-rule="nonzero">
<path style=" stroke:none;fill-rule:nonzero;fill:rgb(63.139343%,69.799805%,100%);fill-opacity:1;" d="M 100.050781 173.445312 L 105.359375 173.445312 L 105.359375 149.65625 L 100.050781 149.65625 L 100.050781 173.445312 "/>
</g>
<g clip-path="url(#clip14)" clip-rule="nonzero">
<path style="fill:none;stroke-width:28;stroke-linecap:round;stroke-linejoin:round;stroke:rgb(9.408569%,9.408569%,12.939453%);stroke-opacity:1;stroke-miterlimit:10;" d="M 875.071852 2098.276717 L 954.309277 2098.276717 L 954.309277 2454.948809 L 875.071852 2454.948809 Z M 875.071852 2098.276717 " transform="matrix(0.066996,0,0,-0.0666973,41.424431,313.394687)"/>
</g>
<path style=" stroke:none;fill-rule:nonzero;fill:rgb(63.139343%,69.799805%,100%);fill-opacity:1;" d="M 220.453125 171.71875 C 220.679688 169.953125 220.679688 168.167969 220.453125 166.40625 C 223.335938 166.042969 226.21875 165.679688 229.101562 165.316406 C 229.414062 167.804688 229.414062 170.316406 229.101562 172.804688 C 226.21875 172.445312 223.335938 172.078125 220.453125 171.71875 "/>
<path style="fill:none;stroke-width:28;stroke-linecap:round;stroke-linejoin:round;stroke:rgb(9.408569%,9.408569%,12.939453%);stroke-opacity:1;stroke-miterlimit:10;" d="M 2672.227947 2124.163263 C 2675.609676 2150.635478 2675.609676 2177.400526 2672.227947 2203.814174 C 2715.257541 2209.26089 2758.287136 2214.707607 2801.316731 2220.095757 C 2805.981186 2182.847243 2805.981186 2145.188761 2801.316731 2107.88168 C 2758.287136 2113.26983 2715.257541 2118.775113 2672.227947 2124.163263 Z M 2672.227947 2124.163263 " transform="matrix(0.066996,0,0,-0.0666973,41.424431,313.394687)"/>
<path style=" stroke:none;fill-rule:nonzero;fill:rgb(63.139343%,69.799805%,100%);fill-opacity:1;" d="M 219.0625 177.539062 C 219.71875 175.886719 220.164062 174.160156 220.390625 172.398438 C 223.273438 172.761719 226.152344 173.125 229.035156 173.492188 C 228.71875 175.976562 228.089844 178.414062 227.160156 180.738281 C 224.460938 179.675781 221.757812 178.609375 219.0625 177.539062 "/>
<path style="fill:none;stroke-width:28;stroke-linecap:round;stroke-linejoin:round;stroke:rgb(9.408569%,9.408569%,12.939453%);stroke-opacity:1;stroke-miterlimit:10;" d="M 2651.471123 2036.898663 C 2661.266478 2061.672439 2667.913326 2087.558985 2671.295056 2113.972632 C 2714.324651 2108.525915 2757.29594 2103.079199 2800.325534 2097.573915 C 2795.602774 2060.325401 2786.215559 2023.779689 2772.338806 1988.932416 C 2732.049578 2004.862598 2691.702045 2020.851347 2651.471123 2036.898663 Z M 2651.471123 2036.898663 " transform="matrix(0.066996,0,0,-0.0666973,41.424431,313.394687)"/>
<path style=" stroke:none;fill-rule:nonzero;fill:rgb(63.139343%,69.799805%,100%);fill-opacity:1;" d="M 216.039062 182.703125 C 217.125 181.292969 218.03125 179.753906 218.730469 178.117188 C 221.402344 179.25 224.078125 180.386719 226.75 181.519531 C 225.761719 183.824219 224.488281 185.996094 222.957031 187.984375 C 220.652344 186.222656 218.347656 184.464844 216.039062 182.703125 "/>
<path style="fill:none;stroke-width:28;stroke-linecap:round;stroke-linejoin:round;stroke:rgb(9.408569%,9.408569%,12.939453%);stroke-opacity:1;stroke-miterlimit:10;" d="M 2606.342524 1959.473293 C 2622.551504 1980.615924 2636.078423 2003.691261 2646.51514 2028.23077 C 2686.396228 2011.246384 2726.335621 1994.203432 2766.216709 1977.219047 C 2751.465371 1942.664608 2732.457718 1910.101442 2709.60189 1880.290917 C 2675.201537 1906.704564 2640.801183 1933.059645 2606.342524 1959.473293 Z M 2606.342524 1959.473293 " transform="matrix(0.066996,0,0,-0.0666973,41.424431,313.394687)"/>
<path style=" stroke:none;fill-rule:nonzero;fill:rgb(63.139343%,69.799805%,100%);fill-opacity:1;" d="M 216.039062 155.550781 C 217.125 156.960938 218.03125 158.503906 218.730469 160.136719 C 221.402344 159.003906 224.078125 157.871094 226.75 156.734375 C 225.761719 154.429688 224.488281 152.257812 222.957031 150.269531 C 220.652344 152.027344 218.347656 153.789062 216.039062 155.550781 "/>
<path style="fill:none;stroke-width:28;stroke-linecap:round;stroke-linejoin:round;stroke:rgb(9.408569%,9.408569%,12.939453%);stroke-opacity:1;stroke-miterlimit:10;" d="M 2606.342524 2366.571438 C 2622.551504 2345.428807 2636.078423 2322.294903 2646.51514 2297.813961 C 2686.396228 2314.798347 2726.335621 2331.782732 2766.216709 2348.825684 C 2751.465371 2383.380123 2732.457718 2415.94329 2709.60189 2445.753814 C 2675.201537 2419.398733 2640.801183 2392.985086 2606.342524 2366.571438 Z M 2606.342524 2366.571438 " transform="matrix(0.066996,0,0,-0.0666973,41.424431,313.394687)"/>
<path style=" stroke:none;fill-rule:nonzero;fill:rgb(63.139343%,69.799805%,100%);fill-opacity:1;" d="M 220.480469 165.789062 C 220.203125 164.035156 219.707031 162.320312 219.003906 160.6875 C 221.671875 159.542969 224.34375 158.402344 227.011719 157.261719 C 228.003906 159.5625 228.703125 161.980469 229.09375 164.457031 C 226.222656 164.902344 223.351562 165.347656 220.480469 165.789062 "/>
<path style="fill:none;stroke-width:28;stroke-linecap:round;stroke-linejoin:round;stroke:rgb(9.408569%,9.408569%,12.939453%);stroke-opacity:1;stroke-miterlimit:10;" d="M 2672.636087 2213.067735 C 2668.496383 2239.364249 2661.091561 2265.075095 2650.596538 2289.556036 C 2690.41932 2306.716122 2730.300408 2323.817641 2770.12319 2340.91916 C 2784.932834 2306.423288 2795.369551 2270.17041 2801.20012 2233.03903 C 2758.345442 2226.362409 2715.490764 2219.685789 2672.636087 2213.067735 Z M 2672.636087 2213.067735 " transform="matrix(0.066996,0,0,-0.0666973,41.424431,313.394687)"/>
<path style="fill:none;stroke-width:28;stroke-linecap:round;stroke-linejoin:round;stroke:rgb(9.408569%,9.408569%,12.939453%);stroke-opacity:1;stroke-miterlimit:10;" d="M 2725.927482 2454.948809 C 2830.178044 2308.473127 2822.714917 2192.217938 2823.531196 2163.988718 C 2828.837014 1975.696309 2725.927482 1868.34328 2725.927482 1868.34328 " transform="matrix(0.066996,0,0,-0.0666973,41.424431,313.394687)"/>
<path style="fill:none;stroke-width:28;stroke-linecap:round;stroke-linejoin:round;stroke:rgb(9.408569%,9.408569%,12.939453%);stroke-opacity:1;stroke-miterlimit:10;" d="M 1646.980801 2352.515395 C 1570.95019 2399.60314 1469.906439 2390.173877 1403.904405 2324.227609 C 1337.960677 2258.222774 1328.573462 2157.194964 1375.684454 2081.175198 " transform="matrix(0.066996,0,0,-0.0666973,41.424431,313.394687)"/>
<path style="fill:none;stroke-width:28;stroke-linecap:round;stroke-linejoin:round;stroke:rgb(9.408569%,9.408569%,12.939453%);stroke-opacity:1;stroke-miterlimit:10;" d="M 1431.366382 2022.608353 C 1508.154968 1969.488223 1614.329618 1977.043346 1682.722186 2045.449422 C 1751.114753 2113.855498 1758.694492 2219.978623 1705.519708 2296.759758 " transform="matrix(0.066996,0,0,-0.0666973,41.424431,313.394687)"/>
<path style="fill:none;stroke-width:28;stroke-linecap:round;stroke-linejoin:round;stroke:rgb(9.408569%,9.408569%,12.939453%);stroke-opacity:1;stroke-miterlimit:10;" d="M 1678.524176 2184.838516 C 1678.524176 2110.165787 1617.944571 2049.607668 1543.313295 2049.607668 C 1468.623714 2049.607668 1408.102414 2110.165787 1408.102414 2184.838516 C 1408.102414 2259.511244 1468.623714 2320.010796 1543.313295 2320.010796 C 1617.944571 2320.010796 1678.524176 2259.511244 1678.524176 2184.838516 Z M 1678.524176 2184.838516 " transform="matrix(0.066996,0,0,-0.0666973,41.424431,313.394687)"/>
<path style="fill:none;stroke-width:28;stroke-linecap:round;stroke-linejoin:round;stroke:rgb(9.408569%,9.408569%,12.939453%);stroke-opacity:1;stroke-miterlimit:10;" d="M 1535.616945 2257.051437 C 1533.809469 2257.227137 1531.885381 2257.285704 1530.019599 2257.285704 C 1490.0219 2257.285704 1457.545634 2224.839671 1457.545634 2184.838516 C 1457.545634 2144.83736 1490.0219 2112.33276 1530.019599 2112.33276 C 1531.885381 2112.33276 1533.809469 2112.449894 1535.616945 2112.567028 Z M 1535.616945 2257.051437 " transform="matrix(0.066996,0,0,-0.0666973,41.424431,313.394687)"/>
<path style="fill:none;stroke-width:28;stroke-linecap:round;stroke-linejoin:round;stroke:rgb(9.408569%,9.408569%,12.939453%);stroke-opacity:1;stroke-miterlimit:10;" d="M 1535.616945 2184.838516 L 1535.616945 1941.376137 C 1535.616945 1941.376137 1666.921345 1946.764287 1740.386507 2049.607668 Z M 1535.616945 2184.838516 " transform="matrix(0.066996,0,0,-0.0666973,41.424431,313.394687)"/>
<path style="fill:none;stroke-width:28;stroke-linecap:round;stroke-linejoin:round;stroke:rgb(9.408569%,9.408569%,12.939453%);stroke-opacity:1;stroke-miterlimit:10;" d="M 2537.133677 2329.322924 C 2461.103065 2376.410669 2360.059315 2367.039973 2293.998975 2301.035138 C 2228.113553 2235.088869 2218.668032 2134.002493 2265.779024 2057.982727 " transform="matrix(0.066996,0,0,-0.0666973,41.424431,313.394687)"/>
<path style="fill:none;stroke-width:28;stroke-linecap:round;stroke-linejoin:round;stroke:rgb(9.408569%,9.408569%,12.939453%);stroke-opacity:1;stroke-miterlimit:10;" d="M 2321.460953 1999.415882 C 2398.307844 1946.295752 2504.424189 1953.850875 2572.875061 2022.256951 C 2641.209323 2090.663027 2648.789062 2196.786152 2595.672584 2273.625854 " transform="matrix(0.066996,0,0,-0.0666973,41.424431,313.394687)"/>
<path style=" stroke:none;fill-rule:nonzero;fill:rgb(98.039246%,75.289917%,24.708557%);fill-opacity:1;" d="M 204.457031 176.382812 L 202.78125 180.625 L 206.128906 180.625 Z M 204.457031 176.382812 "/>
<path style=" stroke:none;fill-rule:nonzero;fill:rgb(98.039246%,75.289917%,24.708557%);fill-opacity:1;" d="M 204.457031 162.050781 L 202.78125 157.8125 L 206.128906 157.8125 Z M 204.457031 162.050781 "/>
<path style=" stroke:none;fill-rule:nonzero;fill:rgb(98.039246%,75.289917%,24.708557%);fill-opacity:1;" d="M 197.253906 169.21875 L 192.996094 167.550781 L 192.996094 170.886719 Z M 197.253906 169.21875 "/>
<path style=" stroke:none;fill-rule:nonzero;fill:rgb(98.039246%,75.289917%,24.708557%);fill-opacity:1;" d="M 211.65625 169.21875 L 215.914062 167.550781 L 215.914062 170.886719 Z M 211.65625 169.21875 "/>
<path style=" stroke:none;fill-rule:nonzero;fill:rgb(98.039246%,75.289917%,24.708557%);fill-opacity:1;" d="M 204.050781 164.566406 L 203.867188 162.414062 C 204.203125 162.390625 204.542969 162.382812 204.875 162.40625 L 204.742188 164.558594 C 204.515625 164.542969 204.28125 164.542969 204.050781 164.566406 Z M 206.246094 164.898438 C 206.035156 164.8125 205.8125 164.738281 205.59375 164.683594 L 206.113281 162.59375 C 206.441406 162.675781 206.761719 162.78125 207.070312 162.910156 Z M 202.558594 164.945312 L 201.679688 162.972656 C 201.988281 162.839844 202.304688 162.726562 202.632812 162.636719 L 203.203125 164.714844 C 202.984375 164.777344 202.765625 164.855469 202.558594 164.945312 Z M 207.554688 165.714844 C 207.382812 165.5625 207.199219 165.421875 207.007812 165.296875 L 208.1875 163.488281 C 208.46875 163.671875 208.738281 163.875 208.988281 164.097656 Z M 201.269531 165.789062 L 199.796875 164.207031 C 200.046875 163.980469 200.308594 163.769531 200.582031 163.582031 L 201.808594 165.363281 C 201.617188 165.492188 201.4375 165.636719 201.269531 165.789062 Z M 208.53125 166.90625 C 208.421875 166.707031 208.289062 166.515625 208.148438 166.335938 L 209.851562 165.003906 C 210.054688 165.265625 210.246094 165.546875 210.410156 165.835938 Z M 200.324219 167.007812 L 198.417969 165.984375 C 198.574219 165.691406 198.757812 165.40625 198.960938 165.136719 L 200.691406 166.429688 C 200.554688 166.609375 200.433594 166.804688 200.324219 167.007812 Z M 209.0625 168.347656 C 209.023438 168.121094 208.960938 167.898438 208.886719 167.683594 L 210.933594 166.976562 C 211.042969 167.289062 211.132812 167.617188 211.191406 167.945312 Z M 199.824219 168.457031 L 197.6875 168.109375 C 197.742188 167.78125 197.820312 167.453125 197.921875 167.136719 L 199.984375 167.792969 C 199.917969 168.007812 199.863281 168.234375 199.824219 168.457031 Z M 211.238281 170.214844 L 209.09375 169.902344 C 209.128906 169.675781 209.148438 169.449219 209.148438 169.21875 L 209.148438 169.195312 L 211.3125 169.195312 L 211.3125 169.21875 C 211.3125 169.550781 211.285156 169.886719 211.238281 170.214844 Z M 197.695312 170.355469 C 197.640625 170.027344 197.609375 169.691406 197.601562 169.359375 L 199.765625 169.3125 C 199.769531 169.542969 199.792969 169.773438 199.828125 169.996094 Z M 210.546875 172.355469 L 208.625 171.367188 C 208.730469 171.164062 208.816406 170.949219 208.894531 170.734375 L 210.941406 171.433594 C 210.832031 171.75 210.699219 172.058594 210.546875 172.355469 Z M 198.429688 172.476562 C 198.269531 172.1875 198.128906 171.878906 198.015625 171.5625 L 200.046875 170.824219 C 200.125 171.039062 200.222656 171.246094 200.332031 171.445312 Z M 209.191406 174.152344 L 207.699219 172.59375 C 207.863281 172.4375 208.019531 172.265625 208.160156 172.085938 L 209.867188 173.40625 C 209.660156 173.671875 209.433594 173.921875 209.191406 174.152344 Z M 199.820312 174.246094 C 199.570312 174.019531 199.339844 173.773438 199.128906 173.515625 L 200.808594 172.160156 C 200.957031 172.335938 201.117188 172.503906 201.285156 172.65625 Z M 207.332031 175.417969 L 206.421875 173.460938 C 206.628906 173.363281 206.832031 173.253906 207.023438 173.125 L 208.210938 174.929688 C 207.929688 175.113281 207.636719 175.277344 207.332031 175.417969 Z M 201.707031 175.472656 C 201.402344 175.339844 201.101562 175.183594 200.816406 175.003906 L 201.96875 173.179688 C 202.164062 173.296875 202.367188 173.40625 202.574219 173.5 Z M 205.152344 176.007812 L 204.933594 173.863281 C 205.160156 173.839844 205.390625 173.800781 205.613281 173.742188 L 206.144531 175.832031 C 205.820312 175.917969 205.484375 175.972656 205.152344 176.007812 Z M 203.898438 176.019531 C 203.566406 175.996094 203.230469 175.941406 202.902344 175.867188 L 203.394531 173.765625 C 203.613281 173.820312 203.84375 173.855469 204.074219 173.871094 L 203.898438 176.019531 "/>
<path style="fill:none;stroke-width:28;stroke-linecap:round;stroke-linejoin:round;stroke:rgb(9.408569%,9.408569%,12.939453%);stroke-opacity:1;stroke-miterlimit:10;" d="M 1060.017482 2220.447158 L 1202.050128 2220.447158 L 1202.050128 2382.267353 L 1060.017482 2382.267353 Z M 1060.017482 2220.447158 " transform="matrix(0.066996,0,0,-0.0666973,41.424431,313.394687)"/>
<path style="fill:none;stroke-width:28;stroke-linecap:round;stroke-linejoin:round;stroke:rgb(9.408569%,9.408569%,12.939453%);stroke-opacity:1;stroke-miterlimit:10;" d="M 1060.017482 2043.692417 L 1202.050128 2043.692417 L 1202.050128 2175.819221 L 1060.017482 2175.819221 Z M 1060.017482 2043.692417 " transform="matrix(0.066996,0,0,-0.0666973,41.424431,313.394687)"/>
<path style="fill:none;stroke-width:28;stroke-linecap:round;stroke-linejoin:round;stroke:rgb(9.408569%,9.408569%,12.939453%);stroke-opacity:1;stroke-miterlimit:10;" d="M 1202.050128 2010.719283 L 1202.050128 1878.826746 C 1146.076671 1902.019217 1098.26601 1925.445955 1060.017482 1945.885784 L 1060.017482 2010.719283 Z M 1202.050128 2010.719283 " transform="matrix(0.066996,0,0,-0.0666973,41.424431,313.394687)"/>
<path style="fill:none;stroke-width:28;stroke-linecap:round;stroke-linejoin:round;stroke:rgb(9.408569%,9.408569%,12.939453%);stroke-opacity:1;stroke-miterlimit:10;" d="M 1202.050128 2494.598564 L 1202.050128 2410.379439 L 1060.017482 2410.379439 L 1060.017482 2494.598564 Z M 1202.050128 2494.598564 " transform="matrix(0.066996,0,0,-0.0666973,41.424431,313.394687)"/>
<path style=" stroke:none;fill-rule:nonzero;fill:rgb(98.039246%,75.289917%,24.708557%);fill-opacity:1;" d="M 208.253906 150.269531 L 123.949219 150.269531 L 123.949219 148.667969 L 208.253906 148.667969 L 208.253906 150.269531 "/>
</g>
</svg>
